<mxfile host="app.diagrams.net" modified="2024-06-24T04:52:18.102Z" agent="Mozilla/5.0 (Windows NT 10.0; Win64; x64) AppleWebKit/537.36 (KHTML, like Gecko) Chrome/126.0.0.0 Safari/537.36" etag="DBuK7R9kpb88LdRr-2yK" version="24.6.2" type="device">
  <diagram name="Page-1" id="2YBvvXClWsGukQMizWep">
    <mxGraphModel dx="1134" dy="649" grid="1" gridSize="10" guides="1" tooltips="1" connect="1" arrows="1" fold="1" page="1" pageScale="1" pageWidth="850" pageHeight="1100" math="0" shadow="0">
      <root>
        <mxCell id="0" />
        <mxCell id="1" parent="0" />
        <mxCell id="_d03BOu2bw-sFQH5d7TZ-2" value="" style="shape=umlLifeline;perimeter=lifelinePerimeter;whiteSpace=wrap;html=1;container=1;dropTarget=0;collapsible=0;recursiveResize=0;outlineConnect=0;portConstraint=eastwest;newEdgeStyle={&quot;curved&quot;:0,&quot;rounded&quot;:0};participant=umlActor;" parent="1" vertex="1">
          <mxGeometry x="198" y="80" width="20" height="970" as="geometry" />
        </mxCell>
        <mxCell id="_d03BOu2bw-sFQH5d7TZ-51" value="" style="html=1;points=[[0,0,0,0,5],[0,1,0,0,-5],[1,0,0,0,5],[1,1,0,0,-5]];perimeter=orthogonalPerimeter;outlineConnect=0;targetShapes=umlLifeline;portConstraint=eastwest;newEdgeStyle={&quot;curved&quot;:0,&quot;rounded&quot;:0};" parent="_d03BOu2bw-sFQH5d7TZ-2" vertex="1">
          <mxGeometry x="5" y="60" width="10" height="570" as="geometry" />
        </mxCell>
        <mxCell id="_d03BOu2bw-sFQH5d7TZ-56" value="" style="html=1;points=[[0,0,0,0,5],[0,1,0,0,-5],[1,0,0,0,5],[1,1,0,0,-5]];perimeter=orthogonalPerimeter;outlineConnect=0;targetShapes=umlLifeline;portConstraint=eastwest;newEdgeStyle={&quot;curved&quot;:0,&quot;rounded&quot;:0};" parent="_d03BOu2bw-sFQH5d7TZ-2" vertex="1">
          <mxGeometry x="5" y="640" width="10" height="230" as="geometry" />
        </mxCell>
        <mxCell id="_d03BOu2bw-sFQH5d7TZ-3" value="User" style="text;html=1;align=center;verticalAlign=middle;resizable=0;points=[];autosize=1;strokeColor=none;fillColor=none;" parent="1" vertex="1">
          <mxGeometry x="183" y="50" width="50" height="30" as="geometry" />
        </mxCell>
        <mxCell id="_d03BOu2bw-sFQH5d7TZ-4" value="Hospital Management System" style="shape=umlLifeline;perimeter=lifelinePerimeter;whiteSpace=wrap;html=1;container=1;dropTarget=0;collapsible=0;recursiveResize=0;outlineConnect=0;portConstraint=eastwest;newEdgeStyle={&quot;curved&quot;:0,&quot;rounded&quot;:0};" parent="1" vertex="1">
          <mxGeometry x="258" y="80" width="100" height="930" as="geometry" />
        </mxCell>
        <mxCell id="_d03BOu2bw-sFQH5d7TZ-13" value="return Success" style="html=1;verticalAlign=bottom;endArrow=open;dashed=1;endSize=8;curved=0;rounded=0;exitX=0;exitY=1;exitDx=0;exitDy=-5;" parent="_d03BOu2bw-sFQH5d7TZ-4" edge="1">
          <mxGeometry relative="1" as="geometry">
            <mxPoint x="-55.40909090909099" y="180" as="targetPoint" />
            <mxPoint x="45" y="180" as="sourcePoint" />
          </mxGeometry>
        </mxCell>
        <mxCell id="_d03BOu2bw-sFQH5d7TZ-14" value="" style="html=1;points=[[0,0,0,0,5],[0,1,0,0,-5],[1,0,0,0,5],[1,1,0,0,-5]];perimeter=orthogonalPerimeter;outlineConnect=0;targetShapes=umlLifeline;portConstraint=eastwest;newEdgeStyle={&quot;curved&quot;:0,&quot;rounded&quot;:0};" parent="_d03BOu2bw-sFQH5d7TZ-4" vertex="1">
          <mxGeometry x="45" y="70" width="10" height="120" as="geometry" />
        </mxCell>
        <mxCell id="_d03BOu2bw-sFQH5d7TZ-18" value="" style="html=1;points=[[0,0,0,0,5],[0,1,0,0,-5],[1,0,0,0,5],[1,1,0,0,-5]];perimeter=orthogonalPerimeter;outlineConnect=0;targetShapes=umlLifeline;portConstraint=eastwest;newEdgeStyle={&quot;curved&quot;:0,&quot;rounded&quot;:0};" parent="_d03BOu2bw-sFQH5d7TZ-4" vertex="1">
          <mxGeometry x="45" y="230" width="10" height="80" as="geometry" />
        </mxCell>
        <mxCell id="_d03BOu2bw-sFQH5d7TZ-25" value="" style="html=1;points=[[0,0,0,0,5],[0,1,0,0,-5],[1,0,0,0,5],[1,1,0,0,-5]];perimeter=orthogonalPerimeter;outlineConnect=0;targetShapes=umlLifeline;portConstraint=eastwest;newEdgeStyle={&quot;curved&quot;:0,&quot;rounded&quot;:0};" parent="_d03BOu2bw-sFQH5d7TZ-4" vertex="1">
          <mxGeometry x="46" y="350" width="10" height="130" as="geometry" />
        </mxCell>
        <mxCell id="_d03BOu2bw-sFQH5d7TZ-47" value="" style="html=1;points=[[0,0,0,0,5],[0,1,0,0,-5],[1,0,0,0,5],[1,1,0,0,-5]];perimeter=orthogonalPerimeter;outlineConnect=0;targetShapes=umlLifeline;portConstraint=eastwest;newEdgeStyle={&quot;curved&quot;:0,&quot;rounded&quot;:0};" parent="_d03BOu2bw-sFQH5d7TZ-4" vertex="1">
          <mxGeometry x="45" y="600" width="10" height="290" as="geometry" />
        </mxCell>
        <mxCell id="_d03BOu2bw-sFQH5d7TZ-64" value="" style="shape=umlDestroy;whiteSpace=wrap;html=1;strokeWidth=3;targetShapes=umlLifeline;" parent="_d03BOu2bw-sFQH5d7TZ-4" vertex="1">
          <mxGeometry x="36" y="890" width="30" height="30" as="geometry" />
        </mxCell>
        <mxCell id="UFNf3k4EdTvCSGpk00fa-2" value="" style="html=1;points=[[0,0,0,0,5],[0,1,0,0,-5],[1,0,0,0,5],[1,1,0,0,-5]];perimeter=orthogonalPerimeter;outlineConnect=0;targetShapes=umlLifeline;portConstraint=eastwest;newEdgeStyle={&quot;curved&quot;:0,&quot;rounded&quot;:0};" parent="_d03BOu2bw-sFQH5d7TZ-4" vertex="1">
          <mxGeometry x="45" y="500" width="10" height="80" as="geometry" />
        </mxCell>
        <mxCell id="_d03BOu2bw-sFQH5d7TZ-5" value="Database" style="shape=umlLifeline;perimeter=lifelinePerimeter;whiteSpace=wrap;html=1;container=1;dropTarget=0;collapsible=0;recursiveResize=0;outlineConnect=0;portConstraint=eastwest;newEdgeStyle={&quot;curved&quot;:0,&quot;rounded&quot;:0};" parent="1" vertex="1">
          <mxGeometry x="398" y="80" width="110" height="870" as="geometry" />
        </mxCell>
        <mxCell id="_d03BOu2bw-sFQH5d7TZ-15" value="" style="html=1;points=[[0,0,0,0,5],[0,1,0,0,-5],[1,0,0,0,5],[1,1,0,0,-5]];perimeter=orthogonalPerimeter;outlineConnect=0;targetShapes=umlLifeline;portConstraint=eastwest;newEdgeStyle={&quot;curved&quot;:0,&quot;rounded&quot;:0};" parent="_d03BOu2bw-sFQH5d7TZ-5" vertex="1">
          <mxGeometry x="45" y="80" width="10" height="80" as="geometry" />
        </mxCell>
        <mxCell id="_d03BOu2bw-sFQH5d7TZ-28" value="" style="html=1;points=[[0,0,0,0,5],[0,1,0,0,-5],[1,0,0,0,5],[1,1,0,0,-5]];perimeter=orthogonalPerimeter;outlineConnect=0;targetShapes=umlLifeline;portConstraint=eastwest;newEdgeStyle={&quot;curved&quot;:0,&quot;rounded&quot;:0};" parent="_d03BOu2bw-sFQH5d7TZ-5" vertex="1">
          <mxGeometry x="45" y="330" width="10" height="120" as="geometry" />
        </mxCell>
        <mxCell id="PATUF-ThluSDB5zZ_g1W-3" value="" style="html=1;points=[[0,0,0,0,5],[0,1,0,0,-5],[1,0,0,0,5],[1,1,0,0,-5]];perimeter=orthogonalPerimeter;outlineConnect=0;targetShapes=umlLifeline;portConstraint=eastwest;newEdgeStyle={&quot;curved&quot;:0,&quot;rounded&quot;:0};" parent="_d03BOu2bw-sFQH5d7TZ-5" vertex="1">
          <mxGeometry x="50" y="510" width="10" height="80" as="geometry" />
        </mxCell>
        <mxCell id="_d03BOu2bw-sFQH5d7TZ-6" value="" style="shape=umlLifeline;perimeter=lifelinePerimeter;whiteSpace=wrap;html=1;container=1;dropTarget=0;collapsible=0;recursiveResize=0;outlineConnect=0;portConstraint=eastwest;newEdgeStyle={&quot;curved&quot;:0,&quot;rounded&quot;:0};participant=umlActor;" parent="1" vertex="1">
          <mxGeometry x="528" y="80" width="20" height="890" as="geometry" />
        </mxCell>
        <mxCell id="UFNf3k4EdTvCSGpk00fa-11" value="" style="html=1;points=[[0,0,0,0,5],[0,1,0,0,-5],[1,0,0,0,5],[1,1,0,0,-5]];perimeter=orthogonalPerimeter;outlineConnect=0;targetShapes=umlLifeline;portConstraint=eastwest;newEdgeStyle={&quot;curved&quot;:0,&quot;rounded&quot;:0};" parent="_d03BOu2bw-sFQH5d7TZ-6" vertex="1">
          <mxGeometry x="5" y="670" width="10" height="80" as="geometry" />
        </mxCell>
        <mxCell id="_d03BOu2bw-sFQH5d7TZ-7" value="Admin" style="text;html=1;align=center;verticalAlign=middle;resizable=0;points=[];autosize=1;strokeColor=none;fillColor=none;" parent="1" vertex="1">
          <mxGeometry x="508" y="50" width="60" height="30" as="geometry" />
        </mxCell>
        <mxCell id="_d03BOu2bw-sFQH5d7TZ-12" value="User Login" style="html=1;verticalAlign=bottom;endArrow=block;curved=0;rounded=0;entryX=0;entryY=0;entryDx=0;entryDy=5;" parent="1" source="_d03BOu2bw-sFQH5d7TZ-51" target="_d03BOu2bw-sFQH5d7TZ-14" edge="1">
          <mxGeometry relative="1" as="geometry">
            <mxPoint x="220" y="155" as="sourcePoint" />
            <mxPoint x="308" y="155" as="targetPoint" />
          </mxGeometry>
        </mxCell>
        <mxCell id="_d03BOu2bw-sFQH5d7TZ-16" value="User Credentials Verify" style="html=1;verticalAlign=bottom;endArrow=block;curved=0;rounded=0;entryX=0;entryY=0;entryDx=0;entryDy=5;" parent="1" source="_d03BOu2bw-sFQH5d7TZ-14" target="_d03BOu2bw-sFQH5d7TZ-15" edge="1">
          <mxGeometry relative="1" as="geometry">
            <mxPoint x="318" y="165" as="sourcePoint" />
          </mxGeometry>
        </mxCell>
        <mxCell id="_d03BOu2bw-sFQH5d7TZ-17" value="return Success" style="html=1;verticalAlign=bottom;endArrow=open;dashed=1;endSize=8;curved=0;rounded=0;exitX=0;exitY=1;exitDx=0;exitDy=-5;" parent="1" source="_d03BOu2bw-sFQH5d7TZ-15" target="_d03BOu2bw-sFQH5d7TZ-4" edge="1">
          <mxGeometry relative="1" as="geometry">
            <mxPoint x="318" y="240" as="targetPoint" />
          </mxGeometry>
        </mxCell>
        <mxCell id="_d03BOu2bw-sFQH5d7TZ-19" value="Check Appointment" style="html=1;verticalAlign=bottom;endArrow=block;curved=0;rounded=0;entryX=0;entryY=0;entryDx=0;entryDy=5;" parent="1" source="_d03BOu2bw-sFQH5d7TZ-2" target="_d03BOu2bw-sFQH5d7TZ-18" edge="1">
          <mxGeometry relative="1" as="geometry">
            <mxPoint x="233" y="315" as="sourcePoint" />
          </mxGeometry>
        </mxCell>
        <mxCell id="_d03BOu2bw-sFQH5d7TZ-20" value="return Available&lt;div&gt;Appointments&lt;/div&gt;" style="html=1;verticalAlign=bottom;endArrow=open;dashed=1;endSize=8;curved=0;rounded=0;exitX=0;exitY=1;exitDx=0;exitDy=-5;" parent="1" source="_d03BOu2bw-sFQH5d7TZ-18" target="_d03BOu2bw-sFQH5d7TZ-2" edge="1">
          <mxGeometry x="0.0052" relative="1" as="geometry">
            <mxPoint x="233" y="385" as="targetPoint" />
            <mxPoint as="offset" />
          </mxGeometry>
        </mxCell>
        <mxCell id="_d03BOu2bw-sFQH5d7TZ-23" value="" style="html=1;verticalAlign=bottom;endArrow=block;curved=0;rounded=0;" parent="1" edge="1">
          <mxGeometry width="80" relative="1" as="geometry">
            <mxPoint x="314.68" y="500" as="sourcePoint" />
            <mxPoint x="444.18000000000023" y="500" as="targetPoint" />
          </mxGeometry>
        </mxCell>
        <mxCell id="_d03BOu2bw-sFQH5d7TZ-31" value="Stores the Patient details" style="edgeLabel;html=1;align=center;verticalAlign=middle;resizable=0;points=[];" parent="_d03BOu2bw-sFQH5d7TZ-23" vertex="1" connectable="0">
          <mxGeometry x="-0.1624" y="5" relative="1" as="geometry">
            <mxPoint x="6" y="-5" as="offset" />
          </mxGeometry>
        </mxCell>
        <mxCell id="_d03BOu2bw-sFQH5d7TZ-26" value="Selected an appointment" style="html=1;verticalAlign=bottom;endArrow=block;curved=0;rounded=0;entryX=0;entryY=0;entryDx=0;entryDy=5;exitX=0.7;exitY=0.518;exitDx=0;exitDy=0;exitPerimeter=0;" parent="1" source="_d03BOu2bw-sFQH5d7TZ-51" target="_d03BOu2bw-sFQH5d7TZ-25" edge="1">
          <mxGeometry relative="1" as="geometry">
            <mxPoint x="220" y="435" as="sourcePoint" />
          </mxGeometry>
        </mxCell>
        <mxCell id="_d03BOu2bw-sFQH5d7TZ-27" value="return Make Payment" style="html=1;verticalAlign=bottom;endArrow=open;dashed=1;endSize=8;curved=0;rounded=0;exitX=0;exitY=1;exitDx=0;exitDy=-5;" parent="1" source="_d03BOu2bw-sFQH5d7TZ-25" target="_d03BOu2bw-sFQH5d7TZ-2" edge="1">
          <mxGeometry relative="1" as="geometry">
            <mxPoint x="234" y="505" as="targetPoint" />
          </mxGeometry>
        </mxCell>
        <mxCell id="_d03BOu2bw-sFQH5d7TZ-32" value="return ConfirmationStatus" style="html=1;verticalAlign=bottom;endArrow=open;dashed=1;endSize=8;curved=0;rounded=0;exitX=0;exitY=1;exitDx=0;exitDy=-5;" parent="1" edge="1">
          <mxGeometry relative="1" as="geometry">
            <mxPoint x="308.00352941176465" y="520" as="targetPoint" />
            <mxPoint x="445.68" y="520" as="sourcePoint" />
          </mxGeometry>
        </mxCell>
        <mxCell id="_d03BOu2bw-sFQH5d7TZ-35" value="Verifies OTP" style="html=1;verticalAlign=bottom;endArrow=block;curved=0;rounded=0;" parent="1" edge="1">
          <mxGeometry relative="1" as="geometry">
            <mxPoint x="318" y="450" as="sourcePoint" />
            <mxPoint x="440" y="450" as="targetPoint" />
          </mxGeometry>
        </mxCell>
        <mxCell id="_d03BOu2bw-sFQH5d7TZ-36" value="return Success" style="html=1;verticalAlign=bottom;endArrow=open;dashed=1;endSize=8;curved=0;rounded=0;" parent="1" edge="1">
          <mxGeometry relative="1" as="geometry">
            <mxPoint x="307.32352941176464" y="470" as="targetPoint" />
            <mxPoint x="440" y="470" as="sourcePoint" />
          </mxGeometry>
        </mxCell>
        <mxCell id="_d03BOu2bw-sFQH5d7TZ-52" value="" style="endArrow=open;endFill=1;endSize=12;html=1;rounded=0;exitX=-0.014;exitY=0.74;exitDx=0;exitDy=0;exitPerimeter=0;" parent="1" edge="1">
          <mxGeometry width="160" relative="1" as="geometry">
            <mxPoint x="314.2999999999999" y="831.25" as="sourcePoint" />
            <mxPoint x="445.7" y="831.05" as="targetPoint" />
          </mxGeometry>
        </mxCell>
        <mxCell id="_d03BOu2bw-sFQH5d7TZ-54" value="Stores the data" style="text;html=1;align=center;verticalAlign=middle;resizable=0;points=[];autosize=1;strokeColor=none;fillColor=none;" parent="1" vertex="1">
          <mxGeometry x="325" y="802" width="100" height="30" as="geometry" />
        </mxCell>
        <mxCell id="_d03BOu2bw-sFQH5d7TZ-58" value="" style="endArrow=block;endFill=1;endSize=12;html=1;rounded=0;verticalAlign=bottom;curved=0;" parent="1" edge="1">
          <mxGeometry width="160" relative="1" as="geometry">
            <mxPoint x="209.5" y="759.29" as="sourcePoint" />
            <mxPoint x="306.5" y="759.29" as="targetPoint" />
          </mxGeometry>
        </mxCell>
        <mxCell id="_d03BOu2bw-sFQH5d7TZ-59" value="&lt;font style=&quot;font-size: 8px;&quot;&gt;Update User Details&lt;/font&gt;" style="text;html=1;align=center;verticalAlign=middle;resizable=0;points=[];autosize=1;strokeColor=none;fillColor=none;" parent="1" vertex="1">
          <mxGeometry x="208" y="730" width="100" height="30" as="geometry" />
        </mxCell>
        <mxCell id="_d03BOu2bw-sFQH5d7TZ-60" value="" style="endArrow=open;endFill=1;endSize=12;html=1;rounded=0;" parent="1" source="_d03BOu2bw-sFQH5d7TZ-56" edge="1">
          <mxGeometry width="160" relative="1" as="geometry">
            <mxPoint x="220" y="882" as="sourcePoint" />
            <mxPoint x="310" y="882" as="targetPoint" />
          </mxGeometry>
        </mxCell>
        <mxCell id="_d03BOu2bw-sFQH5d7TZ-61" value="Logout" style="text;html=1;align=center;verticalAlign=middle;resizable=0;points=[];autosize=1;strokeColor=none;fillColor=none;" parent="1" vertex="1">
          <mxGeometry x="230" y="862" width="60" height="30" as="geometry" />
        </mxCell>
        <mxCell id="_d03BOu2bw-sFQH5d7TZ-63" value="" style="shape=umlDestroy;whiteSpace=wrap;html=1;strokeWidth=3;targetShapes=umlLifeline;" parent="1" vertex="1">
          <mxGeometry x="195" y="952" width="30" height="30" as="geometry" />
        </mxCell>
        <mxCell id="_d03BOu2bw-sFQH5d7TZ-65" value="" style="shape=umlDestroy;whiteSpace=wrap;html=1;strokeWidth=3;targetShapes=umlLifeline;" parent="1" vertex="1">
          <mxGeometry x="435" y="852" width="30" height="30" as="geometry" />
        </mxCell>
        <mxCell id="_d03BOu2bw-sFQH5d7TZ-66" value="" style="shape=umlDestroy;whiteSpace=wrap;html=1;strokeWidth=3;targetShapes=umlLifeline;" parent="1" vertex="1">
          <mxGeometry x="525" y="832" width="30" height="30" as="geometry" />
        </mxCell>
        <mxCell id="_d03BOu2bw-sFQH5d7TZ-68" value="" style="text;strokeColor=none;fillColor=none;align=left;verticalAlign=middle;spacingTop=-1;spacingLeft=4;spacingRight=4;rotatable=0;labelPosition=right;points=[];portConstraint=eastwest;" parent="1" vertex="1">
          <mxGeometry x="10" y="360" width="20" height="14" as="geometry" />
        </mxCell>
        <mxCell id="_d03BOu2bw-sFQH5d7TZ-69" value="" style="text;strokeColor=none;fillColor=none;align=left;verticalAlign=middle;spacingTop=-1;spacingLeft=4;spacingRight=4;rotatable=0;labelPosition=right;points=[];portConstraint=eastwest;" parent="1" vertex="1">
          <mxGeometry x="800" y="430" width="20" height="14" as="geometry" />
        </mxCell>
        <mxCell id="_d03BOu2bw-sFQH5d7TZ-70" value="" style="text;strokeColor=none;fillColor=none;align=left;verticalAlign=middle;spacingTop=-1;spacingLeft=4;spacingRight=4;rotatable=0;labelPosition=right;points=[];portConstraint=eastwest;" parent="1" vertex="1">
          <mxGeometry x="405" width="20" height="14" as="geometry" />
        </mxCell>
        <mxCell id="_d03BOu2bw-sFQH5d7TZ-71" value="" style="text;strokeColor=none;fillColor=none;align=left;verticalAlign=middle;spacingTop=-1;spacingLeft=4;spacingRight=4;rotatable=0;labelPosition=right;points=[];portConstraint=eastwest;" parent="1" vertex="1">
          <mxGeometry x="422" y="940" width="20" height="14" as="geometry" />
        </mxCell>
        <mxCell id="UFNf3k4EdTvCSGpk00fa-1" value="Payment Done" style="html=1;verticalAlign=bottom;endArrow=block;curved=0;rounded=0;" parent="1" target="_d03BOu2bw-sFQH5d7TZ-4" edge="1">
          <mxGeometry width="80" relative="1" as="geometry">
            <mxPoint x="210" y="600" as="sourcePoint" />
            <mxPoint x="290" y="600" as="targetPoint" />
          </mxGeometry>
        </mxCell>
        <mxCell id="UFNf3k4EdTvCSGpk00fa-3" value="" style="endArrow=block;endFill=1;html=1;edgeStyle=orthogonalEdgeStyle;align=left;verticalAlign=top;rounded=0;" parent="1" edge="1">
          <mxGeometry x="-1" relative="1" as="geometry">
            <mxPoint x="315" y="610" as="sourcePoint" />
            <mxPoint x="445" y="610" as="targetPoint" />
            <Array as="points">
              <mxPoint x="345" y="610" />
              <mxPoint x="345" y="610" />
            </Array>
          </mxGeometry>
        </mxCell>
        <mxCell id="UFNf3k4EdTvCSGpk00fa-5" value="Stores in DB" style="text;html=1;align=center;verticalAlign=middle;resizable=0;points=[];autosize=1;strokeColor=none;fillColor=none;" parent="1" vertex="1">
          <mxGeometry x="335" y="588" width="90" height="30" as="geometry" />
        </mxCell>
        <mxCell id="UFNf3k4EdTvCSGpk00fa-6" value="return Status" style="html=1;verticalAlign=bottom;endArrow=open;dashed=1;endSize=8;curved=0;rounded=0;" parent="1" edge="1">
          <mxGeometry relative="1" as="geometry">
            <mxPoint x="450" y="640" as="sourcePoint" />
            <mxPoint x="310" y="640" as="targetPoint" />
          </mxGeometry>
        </mxCell>
        <mxCell id="UFNf3k4EdTvCSGpk00fa-7" value="return Success" style="html=1;verticalAlign=bottom;endArrow=open;dashed=1;endSize=8;curved=0;rounded=0;" parent="1" edge="1">
          <mxGeometry relative="1" as="geometry">
            <mxPoint x="300" y="650" as="sourcePoint" />
            <mxPoint x="220" y="650" as="targetPoint" />
          </mxGeometry>
        </mxCell>
        <mxCell id="UFNf3k4EdTvCSGpk00fa-8" value="Verifies OTP" style="html=1;verticalAlign=bottom;endArrow=block;curved=0;rounded=0;" parent="1" edge="1">
          <mxGeometry width="80" relative="1" as="geometry">
            <mxPoint x="310" y="770" as="sourcePoint" />
            <mxPoint x="450" y="770" as="targetPoint" />
          </mxGeometry>
        </mxCell>
        <mxCell id="UFNf3k4EdTvCSGpk00fa-9" value="return Success" style="html=1;verticalAlign=bottom;endArrow=open;dashed=1;endSize=8;curved=0;rounded=0;" parent="1" target="_d03BOu2bw-sFQH5d7TZ-4" edge="1">
          <mxGeometry relative="1" as="geometry">
            <mxPoint x="450" y="800" as="sourcePoint" />
            <mxPoint x="370" y="800" as="targetPoint" />
          </mxGeometry>
        </mxCell>
        <mxCell id="UFNf3k4EdTvCSGpk00fa-10" value="" style="endArrow=open;endFill=1;endSize=12;html=1;rounded=0;" parent="1" target="_d03BOu2bw-sFQH5d7TZ-6" edge="1">
          <mxGeometry width="160" relative="1" as="geometry">
            <mxPoint x="450" y="780" as="sourcePoint" />
            <mxPoint x="610" y="780" as="targetPoint" />
          </mxGeometry>
        </mxCell>
        <mxCell id="UFNf3k4EdTvCSGpk00fa-12" value="&lt;font style=&quot;font-size: 8px;&quot;&gt;Collect New Details&lt;/font&gt;" style="text;html=1;align=center;verticalAlign=middle;resizable=0;points=[];autosize=1;strokeColor=none;fillColor=none;" parent="1" vertex="1">
          <mxGeometry x="443" y="760" width="90" height="30" as="geometry" />
        </mxCell>
        <mxCell id="PATUF-ThluSDB5zZ_g1W-4" value="&lt;b&gt;HOSPITAL MANAGEMENT SYSTEM&lt;/b&gt;" style="text;html=1;align=center;verticalAlign=middle;resizable=0;points=[];autosize=1;strokeColor=none;fillColor=none;" parent="1" vertex="1">
          <mxGeometry x="265" y="20" width="230" height="30" as="geometry" />
        </mxCell>
        <mxCell id="PATUF-ThluSDB5zZ_g1W-5" value="" style="text;strokeColor=none;fillColor=none;align=left;verticalAlign=middle;spacingTop=-1;spacingLeft=4;spacingRight=4;rotatable=0;labelPosition=right;points=[];portConstraint=eastwest;" parent="1" vertex="1">
          <mxGeometry x="385" y="7" width="20" height="14" as="geometry" />
        </mxCell>
        <mxCell id="PATUF-ThluSDB5zZ_g1W-6" value="" style="text;strokeColor=none;fillColor=none;align=left;verticalAlign=middle;spacingTop=-1;spacingLeft=4;spacingRight=4;rotatable=0;labelPosition=right;points=[];portConstraint=eastwest;" parent="1" vertex="1">
          <mxGeometry x="630" y="419" width="20" height="14" as="geometry" />
        </mxCell>
        <mxCell id="PATUF-ThluSDB5zZ_g1W-7" value="" style="text;strokeColor=none;fillColor=none;align=left;verticalAlign=middle;spacingTop=-1;spacingLeft=4;spacingRight=4;rotatable=0;labelPosition=right;points=[];portConstraint=eastwest;" parent="1" vertex="1">
          <mxGeometry x="90" y="420" width="20" height="14" as="geometry" />
        </mxCell>
        <mxCell id="PATUF-ThluSDB5zZ_g1W-8" value="" style="text;strokeColor=none;fillColor=none;align=left;verticalAlign=middle;spacingTop=-1;spacingLeft=4;spacingRight=4;rotatable=0;labelPosition=right;points=[];portConstraint=eastwest;" parent="1" vertex="1">
          <mxGeometry x="370" y="1070" width="20" height="14" as="geometry" />
        </mxCell>
        <mxCell id="1-yz7baAePIUy2asTI9G-3" value="" style="shape=umlLifeline;perimeter=lifelinePerimeter;whiteSpace=wrap;html=1;container=1;dropTarget=0;collapsible=0;recursiveResize=0;outlineConnect=0;portConstraint=eastwest;newEdgeStyle={&quot;curved&quot;:0,&quot;rounded&quot;:0};participant=umlActor;" vertex="1" parent="1">
          <mxGeometry x="630" y="80" width="20" height="830" as="geometry" />
        </mxCell>
        <mxCell id="1-yz7baAePIUy2asTI9G-6" value="" style="html=1;points=[[0,0,0,0,5],[0,1,0,0,-5],[1,0,0,0,5],[1,1,0,0,-5]];perimeter=orthogonalPerimeter;outlineConnect=0;targetShapes=umlLifeline;portConstraint=eastwest;newEdgeStyle={&quot;curved&quot;:0,&quot;rounded&quot;:0};" vertex="1" parent="1-yz7baAePIUy2asTI9G-3">
          <mxGeometry x="5" y="400" width="10" height="80" as="geometry" />
        </mxCell>
        <mxCell id="1-yz7baAePIUy2asTI9G-4" value="Doctor" style="text;html=1;align=center;verticalAlign=middle;resizable=0;points=[];autosize=1;strokeColor=none;fillColor=none;" vertex="1" parent="1">
          <mxGeometry x="610" y="50" width="60" height="30" as="geometry" />
        </mxCell>
        <mxCell id="1-yz7baAePIUy2asTI9G-9" value="Sends Patient details to doctor" style="html=1;verticalAlign=bottom;endArrow=open;curved=0;rounded=0;endFill=1;endSize=12;" edge="1" parent="1" source="_d03BOu2bw-sFQH5d7TZ-25">
          <mxGeometry x="0.4192" y="10" width="80" relative="1" as="geometry">
            <mxPoint x="320" y="530" as="sourcePoint" />
            <mxPoint x="632.5" y="530" as="targetPoint" />
            <mxPoint as="offset" />
          </mxGeometry>
        </mxCell>
        <mxCell id="1-yz7baAePIUy2asTI9G-10" value="" style="shape=umlDestroy;whiteSpace=wrap;html=1;strokeWidth=3;targetShapes=umlLifeline;" vertex="1" parent="1">
          <mxGeometry x="625" y="880" width="30" height="30" as="geometry" />
        </mxCell>
      </root>
    </mxGraphModel>
  </diagram>
</mxfile>
